<svg width="24" height="24" viewBox="0 0 24 24" fill="none" xmlns="http://www.w3.org/2000/svg">
<path fill-rule="evenodd" clip-rule="evenodd" d="M21.5996 18.2992C21.5996 18.5379 21.5048 18.7668 21.336 18.9356C21.1672 19.1044 20.9383 19.1992 20.6996 19.1992L3.29961 19.1992C3.06091 19.1992 2.83199 19.1044 2.66321 18.9356C2.49443 18.7668 2.39961 18.5379 2.39961 18.2992C2.39961 18.0605 2.49443 17.8316 2.66321 17.6628C2.83199 17.494 3.06091 17.3992 3.29961 17.3992L20.6996 17.3992C20.9383 17.3992 21.1672 17.494 21.336 17.6628C21.5048 17.8316 21.5996 18.0605 21.5996 18.2992ZM21.5996 5.69922C21.5996 5.93791 21.5048 6.16683 21.336 6.33562C21.1672 6.5044 20.9383 6.59922 20.6996 6.59922L3.29961 6.59922C3.06091 6.59922 2.83199 6.5044 2.66321 6.33562C2.49443 6.16683 2.39961 5.93791 2.39961 5.69922C2.39961 5.46052 2.49443 5.23161 2.66321 5.06282C2.83199 4.89404 3.06091 4.79922 3.29961 4.79922L20.6996 4.79922C20.9383 4.79922 21.1672 4.89404 21.336 5.06282C21.5048 5.23161 21.5996 5.46052 21.5996 5.69922ZM21.5996 11.9992C21.5996 12.2379 21.5048 12.4668 21.336 12.6356C21.1672 12.8044 20.9383 12.8992 20.6996 12.8992H11.6996C11.4609 12.8992 11.232 12.8044 11.0632 12.6356C10.8944 12.4668 10.7996 12.2379 10.7996 11.9992C10.7996 11.7605 10.8944 11.5316 11.0632 11.3628C11.232 11.194 11.4609 11.0992 11.6996 11.0992L20.6996 11.0992C20.9383 11.0992 21.1672 11.194 21.336 11.3628C21.5048 11.5316 21.5996 11.7605 21.5996 11.9992Z" fill="#333333"/>
</svg>
